<mxfile host="app.diagrams.net" modified="2020-12-10T19:39:45.955Z" agent="5.0 (X11; Linux x86_64) AppleWebKit/537.36 (KHTML, like Gecko) Chrome/87.0.4280.66 Safari/537.36" etag="H1OU-EXqU-Cq1SxkCBob" version="14.0.0" type="github">
  <diagram id="C5RBs43oDa-KdzZeNtuy" name="Page-1">
    <mxGraphModel dx="836" dy="505" grid="1" gridSize="10" guides="1" tooltips="1" connect="1" arrows="1" fold="1" page="1" pageScale="1" pageWidth="827" pageHeight="1169" math="0" shadow="0">
      <root>
        <mxCell id="WIyWlLk6GJQsqaUBKTNV-0" />
        <mxCell id="WIyWlLk6GJQsqaUBKTNV-1" parent="WIyWlLk6GJQsqaUBKTNV-0" />
        <mxCell id="5JT8TR8gBB14VizR4MjL-3" style="edgeStyle=orthogonalEdgeStyle;rounded=0;orthogonalLoop=1;jettySize=auto;html=1;entryX=0;entryY=0.5;entryDx=0;entryDy=0;" edge="1" parent="WIyWlLk6GJQsqaUBKTNV-1" source="5JT8TR8gBB14VizR4MjL-0" target="5JT8TR8gBB14VizR4MjL-5">
          <mxGeometry relative="1" as="geometry">
            <mxPoint x="260" y="100" as="targetPoint" />
            <Array as="points">
              <mxPoint x="200" y="270" />
              <mxPoint x="200" y="105" />
            </Array>
          </mxGeometry>
        </mxCell>
        <mxCell id="5JT8TR8gBB14VizR4MjL-15" style="edgeStyle=orthogonalEdgeStyle;rounded=0;orthogonalLoop=1;jettySize=auto;html=1;entryX=0;entryY=0.75;entryDx=0;entryDy=0;" edge="1" parent="WIyWlLk6GJQsqaUBKTNV-1" source="5JT8TR8gBB14VizR4MjL-0" target="5JT8TR8gBB14VizR4MjL-13">
          <mxGeometry relative="1" as="geometry">
            <Array as="points">
              <mxPoint x="200" y="270" />
              <mxPoint x="200" y="215" />
            </Array>
          </mxGeometry>
        </mxCell>
        <mxCell id="5JT8TR8gBB14VizR4MjL-23" style="edgeStyle=orthogonalEdgeStyle;rounded=0;orthogonalLoop=1;jettySize=auto;html=1;entryX=0;entryY=0.25;entryDx=0;entryDy=0;" edge="1" parent="WIyWlLk6GJQsqaUBKTNV-1" source="5JT8TR8gBB14VizR4MjL-0" target="5JT8TR8gBB14VizR4MjL-18">
          <mxGeometry relative="1" as="geometry">
            <Array as="points">
              <mxPoint x="200" y="270" />
              <mxPoint x="200" y="278" />
            </Array>
          </mxGeometry>
        </mxCell>
        <mxCell id="5JT8TR8gBB14VizR4MjL-24" style="edgeStyle=orthogonalEdgeStyle;rounded=0;orthogonalLoop=1;jettySize=auto;html=1;entryX=0;entryY=0.5;entryDx=0;entryDy=0;" edge="1" parent="WIyWlLk6GJQsqaUBKTNV-1" source="5JT8TR8gBB14VizR4MjL-0" target="5JT8TR8gBB14VizR4MjL-20">
          <mxGeometry relative="1" as="geometry">
            <mxPoint x="170" y="420" as="targetPoint" />
            <Array as="points">
              <mxPoint x="200" y="270" />
              <mxPoint x="200" y="410" />
            </Array>
          </mxGeometry>
        </mxCell>
        <mxCell id="5JT8TR8gBB14VizR4MjL-0" value="&lt;b&gt;setReference&lt;/b&gt;" style="rounded=1;whiteSpace=wrap;html=1;fontSize=12;glass=0;strokeWidth=1;shadow=0;" vertex="1" parent="WIyWlLk6GJQsqaUBKTNV-1">
          <mxGeometry x="50" y="250" width="120" height="40" as="geometry" />
        </mxCell>
        <mxCell id="5JT8TR8gBB14VizR4MjL-5" value="isfinite" style="swimlane;" vertex="1" parent="WIyWlLk6GJQsqaUBKTNV-1">
          <mxGeometry x="295" y="70" width="225" height="70" as="geometry">
            <mxRectangle x="260" y="400" width="90" height="23" as="alternateBounds" />
          </mxGeometry>
        </mxCell>
        <mxCell id="5JT8TR8gBB14VizR4MjL-7" value="Check if x, y, z or heading is missing." style="text;html=1;align=center;verticalAlign=middle;resizable=0;points=[];autosize=1;" vertex="1" parent="5JT8TR8gBB14VizR4MjL-5">
          <mxGeometry x="5" y="30" width="210" height="20" as="geometry" />
        </mxCell>
        <mxCell id="5JT8TR8gBB14VizR4MjL-13" value="bumperValidatePoint" style="swimlane;" vertex="1" parent="WIyWlLk6GJQsqaUBKTNV-1">
          <mxGeometry x="295" y="170" width="225" height="60" as="geometry">
            <mxRectangle x="260" y="400" width="90" height="23" as="alternateBounds" />
          </mxGeometry>
        </mxCell>
        <mxCell id="5JT8TR8gBB14VizR4MjL-14" value="Check the obstacle bumper." style="text;html=1;align=center;verticalAlign=middle;resizable=0;points=[];autosize=1;" vertex="1" parent="5JT8TR8gBB14VizR4MjL-13">
          <mxGeometry x="25" y="30" width="160" height="20" as="geometry" />
        </mxCell>
        <mxCell id="5JT8TR8gBB14VizR4MjL-18" value="isPointInSafetyArea3d" style="swimlane;" vertex="1" parent="WIyWlLk6GJQsqaUBKTNV-1">
          <mxGeometry x="295" y="260" width="225" height="70" as="geometry">
            <mxRectangle x="260" y="400" width="90" height="23" as="alternateBounds" />
          </mxGeometry>
        </mxCell>
        <mxCell id="5JT8TR8gBB14VizR4MjL-19" value="Check if the reference command is in the&amp;nbsp;&lt;br&gt;safety are." style="text;html=1;align=center;verticalAlign=middle;resizable=0;points=[];autosize=1;" vertex="1" parent="5JT8TR8gBB14VizR4MjL-18">
          <mxGeometry x="-10" y="25" width="240" height="30" as="geometry" />
        </mxCell>
        <mxCell id="5JT8TR8gBB14VizR4MjL-20" value="isPathToPointInSafetyArea3d" style="swimlane;" vertex="1" parent="WIyWlLk6GJQsqaUBKTNV-1">
          <mxGeometry x="295" y="360" width="230" height="100" as="geometry">
            <mxRectangle x="260" y="400" width="90" height="23" as="alternateBounds" />
          </mxGeometry>
        </mxCell>
        <mxCell id="5JT8TR8gBB14VizR4MjL-21" value="Check if the whole path planned form &lt;br&gt;the current point to the reference point is&amp;nbsp;&lt;br&gt;within the safety area&amp;nbsp;" style="text;html=1;align=center;verticalAlign=middle;resizable=0;points=[];autosize=1;" vertex="1" parent="5JT8TR8gBB14VizR4MjL-20">
          <mxGeometry y="40" width="230" height="50" as="geometry" />
        </mxCell>
      </root>
    </mxGraphModel>
  </diagram>
</mxfile>
